<svg xmlns="http://www.w3.org/2000/svg" xmlns:xlink="http://www.w3.org/1999/xlink" viewBox="0 0 47 28.82" preserveAspectRatio="none"><defs><style>.cls-1{fill:none;}.cls-2{isolation:isolate;}.cls-3{fill:#ab1b2b;}.cls-4{fill:#d82533;}.cls-5{clip-path:url(#clip-path);}.cls-6{fill:#eaf2ff;stroke:#fff;stroke-miterlimit:10;stroke-width:0.41px;opacity:0.3;mix-blend-mode:overlay;}.cls-7{fill:#afafaf;opacity:0.19;mix-blend-mode:multiply;}.cls-8{fill:url(#Gradiente_sem_nome_23);}</style><clipPath id="clip-path"><path class="cls-1" d="M45,11.06,38.54,2.24A4.58,4.58,0,0,0,34.84.37H10.46A9.86,9.86,0,0,0,.62,10.2v7.14a9.86,9.86,0,0,0,9.84,9.83H34.84a4.58,4.58,0,0,0,3.7-1.87L45,16.48A4.59,4.59,0,0,0,45,11.06Z"/></clipPath><linearGradient id="Gradiente_sem_nome_23" x1="22.67" y1="29.91" x2="22.67" y2="9.33" gradientUnits="userSpaceOnUse"><stop offset="0" stop-color="#dac3b9"/><stop offset="1" stop-color="#fff"/></linearGradient></defs><title>Apagar</title><g class="cls-2"><g id="Camada_2" data-name="Camada 2"><g id="Camada_1-2" data-name="Camada 1"><path class="cls-3" d="M46.08,11.1,39.36,1.94A4.75,4.75,0,0,0,35.52,0H10.21A10.23,10.23,0,0,0,0,10.21v8.41a10.23,10.23,0,0,0,10.21,10.2H35.52a4.75,4.75,0,0,0,3.84-1.94l6.72-10.15A4.76,4.76,0,0,0,46.08,11.1Z"/><path class="cls-4" d="M45,11.06,38.54,2.24A4.58,4.58,0,0,0,34.84.37H10.46A9.86,9.86,0,0,0,.62,10.2v7.14a9.86,9.86,0,0,0,9.84,9.83H34.84a4.58,4.58,0,0,0,3.7-1.87L45,16.48A4.59,4.59,0,0,0,45,11.06Z"/><path class="cls-1" d="M45,11.06,38.54,2.24A4.58,4.58,0,0,0,34.84.37H26.59A3.8,3.8,0,0,0,26,.43V.37H10.46A9.86,9.86,0,0,0,.62,10.2v7.14a9.86,9.86,0,0,0,9.84,9.83H26v-.06a3.8,3.8,0,0,0,.59.06h8.25a4.58,4.58,0,0,0,3.7-1.87L45,16.48A4.59,4.59,0,0,0,45,11.06Z"/><g class="cls-5"><path class="cls-6" d="M38,4.56c.7-.06,1.41-.15,2.11-.24L38.54,2.24A4.58,4.58,0,0,0,34.84.37H10.46a9.79,9.79,0,0,0-7.1,3.05A204.2,204.2,0,0,0,25,5,123.9,123.9,0,0,0,38,4.56Z"/><path class="cls-7" d="M10.46,27.17H34.84a4.58,4.58,0,0,0,3.7-1.87L41.71,21c-4.85.13-9.7.18-14.55.06-7.22-.19-14.08-.73-20.89-3.3C4.37,17,2.49,16.22.62,15.41v1.93A9.86,9.86,0,0,0,10.46,27.17Z"/></g><path class="cls-3" d="M25.46,19.65a2.06,2.06,0,0,1-2.2-1.11l-.64-1.12L22,18.54a2.11,2.11,0,0,1-2.21,1.11h-2a1.39,1.39,0,0,1-1.32-.72,1.43,1.43,0,0,1,.15-1.52l3-4.61L16.75,8.37a1.44,1.44,0,0,1-.11-1.49,1.39,1.39,0,0,1,1.3-.7h1.92a2.11,2.11,0,0,1,2.19,1.05l.6,1,.57-1a2,2,0,0,1,2.11-1.07H27.4a1.4,1.4,0,0,1,1.28.69,1.46,1.46,0,0,1-.12,1.5L25.71,12.8l3,4.62a1.37,1.37,0,0,1-1.18,2.23Z"/><path class="cls-8" d="M27.54,18.65H25.46c-.82,0-1,0-1.32-.6L22.6,15.4l-1.48,2.65c-.31.5-.47.6-1.34.6h-2c-.48,0-.6-.3-.34-.68l3.31-5.17-3.16-5c-.23-.36-.13-.65.34-.65h1.92c.84,0,1,.07,1.34.57l1.45,2.48,1.44-2.48c.3-.53.5-.57,1.24-.57H27.4c.45,0,.55.29.32.65l-3.2,5L27.88,18C28.14,18.32,28,18.65,27.54,18.65Z"/></g></g></g></svg>