<svg xmlns="http://www.w3.org/2000/svg" xmlns:xlink="http://www.w3.org/1999/xlink" viewBox="0 0 77.35 28.56" preserveAspectRatio="none"><defs><style>.cls-1{isolation:isolate;}.cls-2{fill:#538022;}.cls-3{fill:none;stroke:#538022;stroke-width:0.97px;}.cls-3,.cls-5{stroke-miterlimit:10;}.cls-4{fill:#80c835;}.cls-5{fill:#eaf2ff;stroke:#fff;stroke-width:0.41px;opacity:0.3;mix-blend-mode:overlay;}.cls-6{opacity:0.19;mix-blend-mode:multiply;}.cls-7{fill:#afafaf;}.cls-8{fill:url(#Gradiente_sem_nome_23);}.cls-9{fill:url(#Gradiente_sem_nome_23-2);}.cls-10{fill:url(#Gradiente_sem_nome_23-3);}.cls-11{fill:url(#Gradiente_sem_nome_23-4);}.cls-12{fill:url(#Gradiente_sem_nome_23-5);}.cls-13{fill:url(#Gradiente_sem_nome_23-6);}</style><linearGradient id="Gradiente_sem_nome_23" x1="20.23" y1="30.03" x2="20.23" y2="9.44" gradientUnits="userSpaceOnUse"><stop offset="0" stop-color="#dac3b9"/><stop offset="1" stop-color="#fff"/></linearGradient><linearGradient id="Gradiente_sem_nome_23-2" x1="28.9" y1="30.03" x2="28.9" y2="9.44" xlink:href="#Gradiente_sem_nome_23"/><linearGradient id="Gradiente_sem_nome_23-3" x1="38.3" y1="30.03" x2="38.3" y2="9.44" xlink:href="#Gradiente_sem_nome_23"/><linearGradient id="Gradiente_sem_nome_23-4" x1="45.25" y1="30.03" x2="45.25" y2="9.44" xlink:href="#Gradiente_sem_nome_23"/><linearGradient id="Gradiente_sem_nome_23-5" x1="52.25" y1="30.03" x2="52.25" y2="9.44" xlink:href="#Gradiente_sem_nome_23"/><linearGradient id="Gradiente_sem_nome_23-6" x1="61.63" y1="30.03" x2="61.63" y2="9.44" xlink:href="#Gradiente_sem_nome_23"/></defs><title>Enviar</title><g class="cls-1"><g id="Camada_2" data-name="Camada 2"><g id="Camada_1-2" data-name="Camada 1"><rect class="cls-2" x="0.48" y="1.76" width="76.38" height="26.8" rx="9.36" ry="9.36"/><rect class="cls-3" x="0.48" y="0.48" width="76.38" height="26.8" rx="9.83" ry="9.83"/><rect class="cls-4" x="0.48" y="0.48" width="76.38" height="26.8" rx="9.83" ry="9.83"/><path class="cls-5" d="M67.74.72,54.45.77C40,.85,25.64.68,11.22.55c-1.14.17-2.28.37-3.42.57l-.75.31c3.65.21,7.41,1.21,10.8,1.67l2.4.32.49.06A216.52,216.52,0,0,0,45.52,5.4,123.82,123.82,0,0,0,58.44,5a57.61,57.61,0,0,0,11-2,2.57,2.57,0,0,0,1.25-.66C72.4,1.45,68.29.71,67.74.72Z"/><g class="cls-6"><path class="cls-7" d="M71.25,20.12c-7.86.32-15.74.57-23.61.36-7.21-.18-14.08-.73-20.88-3.3-6-2.25-11.66-5.29-17.85-7A40.9,40.9,0,0,0,.59,8.91a9.36,9.36,0,0,0-.11,1.41v7.13a9.87,9.87,0,0,0,9.84,9.84H67a9.87,9.87,0,0,0,9.52-7.4Z"/></g><path class="cls-2" d="M17.64,19.2a1.41,1.41,0,0,1-1.52-1.51V10.08a1.41,1.41,0,0,1,1.52-1.51h5.09a1.41,1.41,0,0,1,1.52,1.51v1.1a1.42,1.42,0,0,1-.79,1.38,1.64,1.64,0,0,1,.15.73v1.09a1.77,1.77,0,0,1-.17.79,1.38,1.38,0,0,1,.91,1.41v1.11a1.4,1.4,0,0,1-1.51,1.51Z"/><path class="cls-8" d="M23.25,10.08v1.1c0,.39-.13.52-.52.52H19.52v1.08h2.57c.38,0,.52.13.52.51v1.09c0,.39-.14.53-.52.53H19.52v1.16h3.32c.37,0,.51.12.51.51v1.11c0,.37-.14.51-.51.51h-5.2c-.39,0-.52-.14-.52-.51V10.08c0-.37.13-.51.52-.51h5.09C23.12,9.57,23.25,9.71,23.25,10.08Z"/><path class="cls-2" d="M30.66,19.2a1.5,1.5,0,0,1-1.33-.7l-.8-1.23v.42A1.41,1.41,0,0,1,27,19.2H25.78a1.41,1.41,0,0,1-1.52-1.51V10.08a1.41,1.41,0,0,1,1.52-1.51h1.43a1.5,1.5,0,0,1,1.36.71l.72,1.12v-.32A1.4,1.4,0,0,1,30.8,8.57H32a1.4,1.4,0,0,1,1.51,1.51v7.61A1.4,1.4,0,0,1,32,19.2Z"/><path class="cls-9" d="M32.55,10.08v7.61c0,.37-.14.51-.51.51H30.66a.51.51,0,0,1-.49-.25L28.3,15.08a8.45,8.45,0,0,1-1.07-2.51h-.1a12.37,12.37,0,0,1,.4,3.14v2c0,.37-.13.51-.52.51H25.78c-.39,0-.52-.14-.52-.51V10.08c0-.37.13-.51.52-.51h1.43a.53.53,0,0,1,.52.25l2,3.11a12.1,12.1,0,0,1,1,2.22h.09a8.76,8.76,0,0,1-.54-3.07v-2c0-.37.12-.51.51-.51H32C32.41,9.57,32.55,9.71,32.55,10.08Z"/><path class="cls-2" d="M37.54,19.2A1.5,1.5,0,0,1,36,18.12l-2.7-7.72a1.32,1.32,0,0,1,.12-1.27,1.35,1.35,0,0,1,1.18-.56H36a1.73,1.73,0,0,1,1.88,1.26l.5,1.81.51-1.82a1.69,1.69,0,0,1,1.84-1.25h1.37a1.33,1.33,0,0,1,1.16.55,1.36,1.36,0,0,1,.1,1.3L40.64,18.1a1.52,1.52,0,0,1-1.58,1.1Z"/><path class="cls-10" d="M42.38,10.07l-2.69,7.7a.54.54,0,0,1-.63.43H37.54c-.35,0-.52-.09-.63-.4l-2.7-7.73c-.12-.33,0-.5.36-.5H36c.62,0,.81.14.91.51L38,14.24a10.43,10.43,0,0,1,.26,1.57h.11a8.24,8.24,0,0,1,.26-1.56l1.15-4.17c.1-.37.28-.51.88-.51h1.37C42.41,9.57,42.5,9.74,42.38,10.07Z"/><rect class="cls-2" x="43.04" y="8.57" width="4.41" height="10.62" rx="1.49" ry="1.49"/><path class="cls-11" d="M44.53,9.57H46c.37,0,.49.13.49.49v7.65c0,.37-.12.49-.49.49H44.53c-.37,0-.49-.12-.49-.49V10.06C44,9.7,44.16,9.57,44.53,9.57Z"/><path class="cls-2" d="M54.71,19.2a1.71,1.71,0,0,1-1.88-1.26l0-.13H51.63l-.06.18a1.7,1.7,0,0,1-1.84,1.21H48.46a1.33,1.33,0,0,1-1.17-.55,1.36,1.36,0,0,1-.1-1.3L50,9.66a1.51,1.51,0,0,1,1.57-1.09h1.39a1.54,1.54,0,0,1,1.56,1l2.81,7.74a1.31,1.31,0,0,1-.11,1.28A1.35,1.35,0,0,1,56,19.2Z"/><path class="cls-12" d="M56,18.2H54.71c-.63,0-.81-.14-.91-.51l-.28-.88H50.9l-.28.88c-.12.37-.28.51-.89.51H48.46c-.38,0-.45-.17-.33-.5L50.92,10a.54.54,0,0,1,.63-.43h1.39a.55.55,0,0,1,.63.41l2.8,7.72C56.5,18,56.39,18.2,56,18.2Zm-3.76-6.42h-.12a6.32,6.32,0,0,1-.24,1.69l-.44,1.44H53l-.45-1.42A7.67,7.67,0,0,1,52.26,11.78Z"/><path class="cls-2" d="M63.52,19.2a2,2,0,0,1-2-1.17l-.06-.14a1.39,1.39,0,0,1-1.51,1.31H58.55A1.41,1.41,0,0,1,57,17.69V10.08a1.41,1.41,0,0,1,1.52-1.51H62a3.73,3.73,0,0,1,4,3.93,3.86,3.86,0,0,1-1,2.74l1,1.9a1.43,1.43,0,0,1,0,1.43,1.36,1.36,0,0,1-1.21.63Z"/><path class="cls-13" d="M65,12.5A2.68,2.68,0,0,1,63.73,15a2.76,2.76,0,0,1,.32.53l1.1,2.07c.17.33.08.6-.32.6H63.52c-.64,0-.92-.16-1.12-.59L61.62,16a.89.89,0,0,0-.91-.62h-.27v2.36c0,.37-.13.51-.52.51H58.55c-.39,0-.52-.14-.52-.51V10.08c0-.37.13-.51.52-.51H62A2.74,2.74,0,0,1,65,12.5Zm-3.29-.8H60.44v1.6h1.31a.74.74,0,0,0,.8-.81A.72.72,0,0,0,61.75,11.7Z"/></g></g></g></svg>