<svg xmlns="http://www.w3.org/2000/svg" xmlns:xlink="http://www.w3.org/1999/xlink" viewBox="0 0 282.34 227.99" preserveAspectRatio="none"><defs><style>.cls-1{isolation:isolate;}.cls-2{fill:url(#Gradiente_sem_nome_43);}.cls-3{fill:#809cff;}.cls-4{fill:none;stroke:#5574e1;stroke-miterlimit:10;stroke-width:2.68px;}.cls-5{fill:#adadad;opacity:0.11;}.cls-5,.cls-6{mix-blend-mode:multiply;}.cls-6{fill:#dbd8d8;opacity:0.35;}</style><linearGradient id="Gradiente_sem_nome_43" x1="19.54" y1="300.92" x2="244.14" y2="-44.26" gradientUnits="userSpaceOnUse"><stop offset="0" stop-color="#adc0e6"/><stop offset="0.15" stop-color="#c6d3ee"/><stop offset="0.34" stop-color="#dfe6f5"/><stop offset="0.54" stop-color="#f1f4fb"/><stop offset="0.76" stop-color="#fcfcfe"/><stop offset="1" stop-color="#fff"/></linearGradient></defs><title>Ativo 12</title><g class="cls-1"><g id="Camada_2" data-name="Camada 2"><g id="Camada_1-2" data-name="Camada 1"><rect class="cls-2" x="1.34" y="1.34" width="279.66" height="225.31" rx="6.99" ry="6.99"/><path class="cls-3" d="M1.34,180.93v37.93a7.79,7.79,0,0,0,7.79,7.79H273.22a7.78,7.78,0,0,0,7.78-7.79V180.93Z"/><rect class="cls-4" x="1.34" y="1.34" width="279.66" height="225.31" rx="6.99" ry="6.99"/><path class="cls-5" d="M197.61,134.83C143.75,110.72,92.26,81.73,48.18,45.49A409.74,409.74,0,0,1,1.79,1V171c0,5.28,5,9.61,11.1,9.61H268.08c6.11,0,11.1-4.33,11.1-9.61v-3.48C251.5,157.52,224.23,146.75,197.61,134.83Z"/><polygon class="cls-6" points="281.45 197.6 1.79 193.88 1.79 180.62 281.45 180.62 281.45 197.6"/></g></g></g></svg>