<?xml version="1.0" encoding="utf-8"?>
<!-- Generator: Adobe Illustrator 22.1.0, SVG Export Plug-In . SVG Version: 6.00 Build 0)  -->
<svg version="1.1" id="Camada_1" xmlns="http://www.w3.org/2000/svg" xmlns:xlink="http://www.w3.org/1999/xlink" x="0px" y="0px"
	 viewBox="0 0 278 43.5" style="enable-background:new 0 0 278 43.5;" xml:space="preserve">
<style type="text/css">
	.st0{fill:#9F9A8A;}
	.st1{fill:#5C7FF7;stroke:#5C7FF7;stroke-width:0.9;stroke-miterlimit:10;}
	.st2{opacity:0.36;fill:#DBD8D8;enable-background:new    ;}
	.st3{fill:#5C7FF7;}
	.st4{opacity:0.35;fill:#557D9F;enable-background:new    ;}
	.st5{fill:none;stroke:#FFFFFF;stroke-width:0.83;stroke-miterlimit:10;}
	.st6{fill:#838383;}
	.st7{opacity:0.51;fill:#F4DDDD;enable-background:new    ;}
	.st8{fill:#D9D9D9;}
	.st9{opacity:0.43;fill:#444444;enable-background:new    ;}
	.st10{fill:none;stroke:#FFFFFF;stroke-width:0.85;stroke-miterlimit:10;}
</style>
<title>Cartas</title>
<g>
	<g id="Camada_2_1_">
		<g id="Camada_1-2">
			<path class="st0" d="M265.2,3H0v39.8h265.2c6.8,0,12.3-5.5,12.3-12.3V15.4C277.5,8.6,272,3.1,265.2,3z"/>
			<path class="st1" d="M265.2,1.2H0.4v39.8h264.8c6.8,0,12.3-5.5,12.3-12.3c0,0,0,0,0,0V13.6C277.5,6.8,272,1.3,265.2,1.2z"/>
			<polygon class="st2" points="259.1,11.6 247.8,41.7 229.7,41.7 236.9,6.6 			"/>
			<path class="st3" d="M233.6,41.8L221.5,34c-1.6-1-2-3.1-1-4.7c0,0,0.1-0.1,0.1-0.1l19.8-27.7c1.1-1.5,3.1-1.9,4.7-0.9l12.1,7.8
				c1.6,1,2,3.1,1,4.7c0,0-0.1,0.1-0.1,0.1l-19.8,27.7C237.2,42.4,235.2,42.8,233.6,41.8z"/>
			
				<ellipse transform="matrix(0.5837 -0.812 0.812 0.5837 82.4796 203.1692)" class="st4" cx="239.4" cy="21.2" rx="12.9" ry="7.1"/>
			<path class="st5" d="M233.8,39.7L223.3,33c-1.4-0.9-1.7-2.8-0.8-4.2c0-0.1,0.1-0.1,0.1-0.2l18-25.3c0.9-1.3,2.7-1.7,4.1-0.9
				l10.5,6.8c1.4,0.9,1.7,2.8,0.8,4.2c0,0.1-0.1,0.1-0.1,0.2l-18,25.3C237,40.2,235.2,40.6,233.8,39.7z"/>
			<path class="st6" d="M258.6,11.2c-0.1,0.5-0.3,1.1-0.6,1.5l-19.8,27.7c-1,1.5-3.1,1.9-4.6,0.9l-12.9-8c0.2,0.2,0.4,0.4,0.7,0.6
				l12.1,7.8c1.5,1,3.6,0.6,4.6-0.9L258,13.2C258.4,12.6,258.6,12,258.6,11.2z"/>
			<path class="st7" d="M233.9,17.4c1.6,3.5,3.3,7,5,10.5c1.2,2.4,2.3,4.8,3.5,7.2l8.4-11.8l-0.4-0.7c-3.7-6.4-7.6-12.8-11.5-19.2
				l-6.9,9.7C232.6,14.6,233.3,16,233.9,17.4z"/>
			<path class="st7" d="M255.4,16.9l2.6-3.7c1.1-1.5,0.7-3.7-0.8-4.8c0,0-0.1-0.1-0.1-0.1L246,1.2C249.1,6.4,252.3,11.6,255.4,16.9z
				"/>
			<polygon class="st8" points="273,21.2 268.5,25.2 264,29.3 264,21.2 264,13.1 268.5,17.1 			"/>
			<rect x="215.9" y="1.1" class="st9" width="1.8" height="40.1"/>
			<path class="st6" d="M65.7,13.6c0.4-0.6,0.6-1.3,0.7-2c-0.1,0.6-0.3,1.1-0.6,1.6"/>
			<path class="st6" d="M27.4,34.3c0.2,0.2,0.4,0.4,0.7,0.6"/>
			<path class="st10" d="M69.2,29.6"/>
			<path class="st10" d="M85,39.9"/>
		</g>
	</g>
</g>
</svg>
